<?xml version="1.0" standalone="no"?>
<!DOCTYPE svg PUBLIC "-//W3C//DTD SVG 20010904//EN"
 "http://www.w3.org/TR/2001/REC-SVG-20010904/DTD/svg10.dtd">
<svg version="1.0" xmlns="http://www.w3.org/2000/svg"
 width="500.000000pt" height="500.000000pt" viewBox="0 0 500.000000 500.000000"
 preserveAspectRatio="xMidYMid meet">

<g transform="translate(0.000000,500.000000) scale(0.100000,-0.100000)"
fill="#000000" stroke="none">
<path d="M500 4533 c-42 -7 -132 -43 -164 -65 -53 -37 -106 -100 -139 -168
l-32 -65 -3 -1257 c-2 -1248 -2 -1258 18 -1319 34 -100 107 -186 199 -233 88
-46 86 -46 858 -46 l732 0 -5 -32 c-38 -215 -186 -458 -388 -635 l-48 -43
-135 0 c-79 0 -143 -5 -156 -11 -37 -19 -57 -52 -57 -95 0 -49 35 -90 84 -99
17 -3 585 -4 1263 -3 l1232 3 30 29 c52 50 39 132 -26 165 -13 6 -77 11 -157
11 l-136 0 -42 37 c-193 168 -328 379 -384 603 -7 30 -13 58 -14 63 0 4 330 7
733 7 772 0 770 0 858 46 92 46 164 131 198 232 21 62 21 64 19 1320 l-3 1258
-34 68 c-52 102 -118 162 -231 211 -44 20 -85 20 -2045 21 -1100 1 -2011 -1
-2025 -3z m4031 -226 c26 -14 57 -42 74 -68 l30 -44 0 -1000 0 -1000 -379 -3
-380 -2 -145 144 c-159 157 -180 170 -239 142 l-36 -17 -112 113 -113 113 54
80 c74 109 121 227 145 359 24 131 25 200 5 324 -70 430 -417 761 -841 802
-479 45 -895 -233 -1030 -687 -36 -122 -44 -319 -19 -447 51 -256 192 -469
413 -619 239 -163 585 -203 860 -100 84 31 135 57 204 104 32 22 61 39 66 39
4 0 56 -49 117 -110 104 -104 108 -110 97 -135 -7 -14 -12 -44 -12 -66 l0 -39
-1462 2 -1463 3 0 995 c0 1089 -3 1031 57 1087 59 56 -76 52 2079 53 l1986 0
44 -23z m-1945 -257 c304 -39 555 -262 636 -562 29 -110 29 -268 0 -380 -70
-260 -261 -458 -522 -539 -95 -29 -254 -36 -359 -15 -336 68 -583 347 -608
687 -25 354 193 678 527 780 123 37 207 45 326 29z m1114 -2265 l205 -205
-1675 0 c-953 0 -1692 4 -1714 9 -52 13 -106 58 -133 111 -20 39 -23 59 -23
167 l0 123 1568 0 1567 0 205 -205z m938 72 c-3 -126 -5 -136 -31 -175 -15
-23 -46 -54 -69 -69 -41 -28 -44 -28 -230 -31 -103 -2 -188 0 -188 5 0 5 36
44 80 88 44 44 80 86 80 95 0 8 -46 61 -102 117 l-103 103 284 0 283 0 -4
-133z m-1813 -504 c38 -189 91 -326 182 -471 50 -79 132 -186 158 -204 5 -4
-293 -8 -663 -8 l-672 0 32 35 c156 172 261 389 313 648 l5 27 320 0 320 0 5
-27z"/>
<path d="M410 3225 c0 -69 2 -75 21 -75 45 0 76 39 52 64 -5 4 -8 22 -8 38 0
19 -6 33 -15 35 -12 4 -12 3 -2 -5 21 -14 10 -47 -16 -50 -19 -3 -22 1 -22 26
0 17 6 33 13 35 7 3 5 6 -5 6 -16 1 -18 -9 -18 -74z m58 -32 c3 -19 -1 -23
-22 -23 -21 0 -26 5 -26 26 0 21 4 25 23 22 14 -2 23 -11 25 -25z"/>
<path d="M517 3293 c-4 -3 -7 -37 -7 -75 l0 -68 40 0 c22 0 40 5 40 10 0 6
-16 10 -35 10 -31 0 -35 3 -35 25 0 21 5 25 33 26 l32 1 -30 7 c-24 5 -30 12
-30 31 0 21 6 26 35 31 l35 6 -36 2 c-20 0 -39 -2 -42 -6z"/>
<path d="M622 3223 c0 -43 3 -63 5 -45 6 43 39 45 48 2 4 -16 11 -30 16 -30 5
0 3 12 -3 26 -9 20 -9 30 0 45 20 31 14 59 -14 69 -51 20 -54 16 -52 -67z m42
61 c34 -13 14 -64 -25 -64 -5 0 -9 16 -9 35 0 35 5 40 34 29z"/>
<path d="M733 3288 c11 -9 17 -32 20 -78 l3 -65 2 72 c2 59 5 72 20 76 9 3 -1
5 -22 6 -34 1 -37 -1 -23 -11z"/>
<path d="M877 3293 c-4 -3 -7 -37 -7 -75 l0 -68 29 0 c39 0 49 16 49 78 0 47
-3 54 -25 63 -29 11 -37 11 -46 2z m48 -17 c16 -12 17 -16 6 -30 -26 -31 -62
-9 -47 29 7 19 17 19 41 1z m10 -81 c0 -14 -8 -21 -27 -23 -22 -3 -28 1 -28
16 0 25 10 33 35 30 12 -2 20 -10 20 -23z"/>
<path d="M987 3293 c-4 -3 -7 -37 -7 -75 l0 -68 40 0 c22 0 40 5 40 10 0 6
-16 10 -35 10 -30 0 -35 3 -35 24 0 20 6 25 33 29 l32 4 -33 1 c-30 2 -33 5
-30 29 2 22 10 29 33 34 l30 7 -31 1 c-17 0 -34 -2 -37 -6z"/>
<path d="M1087 3293 c-4 -3 -6 -38 -5 -77 0 -39 3 -56 5 -38 6 44 37 44 52 0
6 -17 14 -29 17 -25 3 3 0 15 -6 27 -9 17 -9 28 0 45 14 27 10 57 -8 63 -11 3
-11 1 0 -17 11 -17 10 -23 -4 -37 -9 -9 -24 -14 -32 -11 -21 8 -20 54 2 66 14
9 15 10 1 11 -9 0 -19 -3 -22 -7z"/>
<path d="M1193 3293 c14 -4 17 -16 17 -74 0 -39 4 -69 10 -69 6 0 10 30 10 69
0 46 4 71 13 74 6 3 -6 5 -28 5 -22 0 -32 -2 -22 -5z"/>
<path d="M1340 3225 c0 -69 2 -75 21 -75 46 0 80 46 49 65 -7 4 -7 12 0 25 13
24 3 50 -19 49 -10 0 -11 -2 -3 -6 29 -11 7 -53 -29 -53 -14 0 -11 58 4 63 7
3 5 6 -5 6 -16 1 -18 -9 -18 -74z m64 -21 c9 -22 -1 -34 -30 -34 -19 0 -24 5
-24 25 0 20 5 25 24 25 13 0 27 -7 30 -16z"/>
<path d="M1450 3225 l0 -75 35 0 c19 0 35 5 35 10 0 6 -13 10 -30 10 -25 0
-30 4 -30 24 0 19 6 26 28 29 l27 4 -27 2 c-24 1 -28 5 -28 30 0 26 4 30 33
34 31 4 31 4 -5 5 l-38 2 0 -75z"/>
<path d="M3462 3223 c0 -43 3 -63 5 -45 6 44 37 44 52 0 6 -17 14 -29 17 -25
3 3 0 15 -6 27 -9 17 -9 28 0 45 14 27 10 57 -8 63 -11 3 -11 1 0 -18 11 -18
11 -23 -6 -36 -32 -23 -46 -17 -46 20 0 24 5 36 18 39 13 4 11 5 -5 6 -22 1
-23 -2 -21 -76z"/>
<path d="M3573 3289 c13 -8 17 -25 19 -77 l2 -67 3 65 c3 46 9 69 20 78 14 10
11 12 -23 12 -31 -1 -36 -3 -21 -11z"/>
<path d="M3710 3225 l0 -75 29 0 c39 0 49 16 49 78 0 47 -3 54 -25 63 -50 19
-53 14 -53 -66z m48 56 c19 -11 11 -45 -11 -49 -19 -4 -32 20 -23 43 6 17 15
19 34 6z m17 -86 c0 -14 -8 -21 -27 -23 -24 -3 -28 0 -28 23 0 23 4 26 28 23
19 -2 27 -9 27 -23z"/>
<path d="M3827 3293 c-4 -3 -7 -37 -7 -75 l0 -68 40 0 c22 0 40 5 40 10 0 6
-16 10 -35 10 -30 0 -35 3 -35 24 0 20 6 25 33 29 l32 4 -33 1 c-30 2 -33 5
-30 29 2 22 10 29 33 34 l30 7 -31 1 c-17 0 -34 -2 -37 -6z"/>
<path d="M3922 3223 c0 -43 3 -63 5 -45 6 44 37 44 52 0 6 -17 14 -29 17 -25
3 3 0 15 -6 27 -9 17 -9 28 0 45 14 27 10 57 -8 63 -11 3 -11 1 0 -17 11 -17
10 -23 -4 -37 -9 -9 -24 -14 -32 -11 -21 8 -20 54 2 66 15 9 15 10 -5 11 -22
0 -23 -3 -21 -77z"/>
<path d="M4033 3293 c14 -4 17 -17 19 -76 l2 -72 5 69 c5 57 10 70 26 77 14 5
6 7 -25 7 -25 0 -37 -2 -27 -5z"/>
<path d="M4177 3293 c-4 -3 -7 -37 -7 -75 l0 -68 29 0 c39 0 49 16 49 78 0 47
-3 54 -25 63 -29 11 -37 11 -46 2z m54 -13 c5 0 9 -9 9 -19 0 -22 -37 -38 -52
-23 -15 15 1 55 19 48 8 -3 19 -6 24 -6z m7 -87 c3 -20 -1 -23 -27 -23 -23 0
-31 5 -31 18 0 25 10 33 35 30 12 -2 21 -12 23 -25z"/>
<path d="M4287 3293 c-4 -3 -7 -37 -7 -75 l0 -68 41 0 c24 0 38 4 34 10 -3 6
-19 10 -36 10 -24 0 -29 4 -29 24 0 20 6 25 33 29 l32 4 -33 1 c-30 2 -33 5
-30 29 2 22 10 29 33 34 l30 7 -31 1 c-17 0 -34 -2 -37 -6z"/>
<path d="M4387 3293 c-4 -3 -6 -38 -5 -77 0 -39 3 -56 5 -38 3 22 10 32 22 32
9 0 25 -15 34 -32 14 -26 16 -28 12 -8 -4 14 -6 30 -5 35 5 57 3 78 -8 81 -7
1 -8 0 -2 -3 5 -2 10 -15 10 -28 0 -24 -30 -42 -50 -30 -16 10 -11 53 8 64 14
9 15 10 1 11 -9 0 -19 -3 -22 -7z"/>
<path d="M4493 3293 c14 -4 17 -16 17 -74 0 -39 4 -69 10 -69 6 0 10 30 10 69
0 46 4 71 13 74 6 3 -6 5 -28 5 -22 0 -32 -2 -22 -5z"/>
<path d="M1820 3285 l0 -235 108 0 c80 1 116 5 142 18 40 20 70 71 70 120 0
33 -27 92 -42 92 -14 0 -9 23 9 42 22 25 21 109 -2 144 -26 40 -72 54 -185 54
l-100 0 0 -235z m192 138 c22 -19 24 -56 3 -73 -8 -6 -32 -14 -55 -17 l-40 -6
0 57 0 56 37 0 c20 0 45 -7 55 -17z m10 -190 c43 -38 13 -93 -55 -100 l-47 -6
0 62 0 61 42 0 c24 0 49 -7 60 -17z"/>
<path d="M2200 3285 l0 -235 145 0 145 0 0 40 0 39 -92 3 -93 3 -3 58 -3 57
81 0 80 0 0 40 0 40 -80 0 -80 0 0 55 0 55 95 0 95 0 0 40 0 40 -145 0 -145 0
0 -235z"/>
<path d="M2550 3285 l0 -235 45 0 44 0 3 83 c3 79 4 82 28 85 23 3 28 -4 56
-80 l31 -83 51 -3 c29 -2 52 -1 52 1 0 2 -15 42 -34 88 l-34 84 34 38 c31 34
34 42 34 103 0 123 -43 154 -210 154 l-100 0 0 -235z m192 138 c12 -11 18 -30
18 -60 0 -38 -3 -45 -27 -54 -15 -5 -41 -9 -57 -7 -30 3 -31 5 -34 57 -2 29
-1 60 2 67 8 20 75 18 98 -3z"/>
<path d="M2890 3480 l0 -40 55 0 55 0 0 -195 0 -195 45 0 45 0 0 195 0 195 55
0 55 0 0 40 0 40 -155 0 -155 0 0 -40z"/>
<path d="M2455 1876 c-94 -41 -59 -186 45 -186 105 0 139 140 45 185 -39 18
-51 18 -90 1z"/>
</g>
</svg>
