<?xml version="1.0" standalone="no"?>
<!DOCTYPE svg PUBLIC "-//W3C//DTD SVG 20010904//EN"
 "http://www.w3.org/TR/2001/REC-SVG-20010904/DTD/svg10.dtd">
<svg version="1.0" xmlns="http://www.w3.org/2000/svg"
 width="500.000000pt" height="500.000000pt" viewBox="0 0 500.000000 500.000000"
 preserveAspectRatio="xMidYMid meet">

<g transform="translate(0.000000,500.000000) scale(0.100000,-0.100000)"
fill="#000000" stroke="none">
<path d="M500 4533 c-42 -7 -132 -43 -164 -65 -53 -37 -106 -100 -139 -168
l-32 -65 -3 -1257 c-2 -1248 -2 -1258 18 -1319 34 -100 107 -186 199 -233 88
-46 86 -46 858 -46 l732 0 -5 -32 c-38 -215 -186 -458 -388 -635 l-48 -43
-135 0 c-79 0 -143 -5 -156 -11 -37 -19 -57 -52 -57 -95 0 -49 35 -90 84 -99
17 -3 585 -4 1263 -3 l1232 3 30 29 c52 50 39 132 -26 165 -13 6 -77 11 -157
11 l-136 0 -42 37 c-197 173 -328 379 -384 603 -7 30 -13 58 -14 63 0 4 330 7
733 7 772 0 770 0 858 46 92 46 164 131 198 232 21 62 21 64 19 1320 l-3 1258
-34 68 c-52 102 -118 162 -231 211 -44 20 -85 20 -2045 21 -1100 1 -2011 -1
-2025 -3z m4031 -226 c26 -14 57 -42 74 -68 l30 -44 0 -1000 0 -1000 -379 -3
-380 -2 -145 144 c-159 157 -180 170 -239 142 l-36 -17 -112 113 -113 113 54
80 c74 109 121 227 145 359 24 131 25 200 5 324 -51 315 -239 568 -532 716
-254 128 -618 119 -873 -21 -282 -154 -477 -452 -497 -760 -3 -51 -10 -93 -15
-93 -4 0 -7 -33 -6 -72 l1 -73 7 65 c5 53 7 57 8 22 9 -225 144 -499 320 -650
183 -157 363 -229 597 -239 222 -9 403 40 577 158 32 22 61 39 66 39 4 0 56
-49 117 -110 104 -104 108 -110 97 -135 -7 -14 -12 -44 -12 -66 l0 -39 -1462
2 -1463 3 0 995 c0 1089 -3 1031 57 1087 59 56 -76 52 2079 53 l1986 0 44 -23z
m-1945 -257 c115 -15 248 -66 335 -130 356 -257 431 -726 173 -1077 -92 -125
-236 -225 -394 -274 -95 -29 -254 -36 -359 -15 -336 68 -583 347 -608 687 -25
354 193 678 527 780 123 37 207 45 326 29z m1114 -2265 l205 -205 -1675 0
c-953 0 -1692 4 -1714 9 -52 13 -106 58 -133 111 -20 39 -23 59 -23 167 l0
123 1568 0 1567 0 205 -205z m938 72 c-3 -126 -5 -136 -31 -175 -15 -23 -46
-54 -69 -69 -41 -28 -44 -28 -230 -31 -103 -2 -188 0 -188 5 0 5 36 44 80 88
44 44 80 86 80 95 0 8 -46 61 -102 117 l-103 103 284 0 283 0 -4 -133z m-1813
-504 c38 -189 91 -326 182 -471 50 -79 132 -186 158 -204 5 -4 -293 -8 -663
-8 l-672 0 32 35 c156 172 261 389 313 648 l5 27 320 0 320 0 5 -27z"/>
<path d="M382 3225 c0 -59 2 -71 8 -47 11 48 17 49 41 8 28 -48 35 -41 10 10
-17 35 -18 41 -4 69 14 29 14 29 -14 -5 l-28 -35 -6 40 c-4 29 -6 17 -7 -40z"/>
<path d="M748 3289 c-21 -12 -26 -107 -6 -127 24 -24 78 -2 78 31 0 6 -9 1
-20 -11 -12 -12 -25 -22 -29 -22 -34 0 -41 104 -8 124 15 9 21 6 37 -14 11
-14 20 -20 20 -13 0 15 -28 43 -43 43 -7 0 -20 -5 -29 -11z"/>
<path d="M1002 3223 l1 -78 6 58 6 59 30 -56 c17 -31 33 -56 38 -56 4 0 6 33
5 73 l-1 72 -6 -58 -6 -58 -33 60 c-18 34 -35 61 -38 61 -2 0 -3 -35 -2 -77z"/>
<path d="M1122 3223 l1 -78 6 59 6 60 28 -52 c15 -28 32 -54 37 -57 6 -4 9 23
8 67 l-1 73 -6 -55 -6 -55 -33 58 c-19 31 -36 57 -38 57 -2 0 -3 -35 -2 -77z"/>
<path d="M1258 3289 c-21 -12 -26 -107 -6 -127 26 -26 79 -7 77 28 0 10 -2 11
-6 2 -2 -7 -13 -17 -23 -22 -39 -21 -67 50 -40 101 14 25 35 24 54 -3 13 -18
16 -19 16 -6 0 10 -9 22 -19 28 -24 12 -31 12 -53 -1z"/>
<path d="M3488 3289 c-21 -12 -26 -107 -6 -127 24 -24 78 -2 78 31 0 6 -9 1
-20 -11 -12 -12 -25 -22 -29 -22 -34 0 -41 104 -8 124 15 9 21 6 37 -14 11
-14 20 -20 20 -13 0 15 -28 43 -43 43 -7 0 -20 -5 -29 -11z"/>
<path d="M3679 3266 c-26 -45 -37 -45 -42 -3 -2 17 -4 -2 -4 -43 0 -41 2 -63
4 -48 2 14 10 32 18 38 11 9 18 4 34 -27 11 -21 20 -32 21 -26 0 7 -9 27 -19
44 -20 32 -20 33 1 61 11 16 18 32 14 35 -3 3 -15 -11 -27 -31z"/>
<path d="M3742 3223 l1 -78 6 64 6 64 23 -48 c13 -26 25 -45 29 -42 5 6 -54
117 -63 117 -2 0 -3 -35 -2 -77z"/>
<path d="M3862 3223 c2 -71 2 -73 5 -20 3 50 6 57 19 47 7 -7 14 -17 14 -22 0
-5 11 -26 25 -46 l25 -37 -2 75 c-1 72 -1 73 -7 22 l-6 -53 -33 56 c-18 30
-35 55 -38 55 -2 0 -3 -35 -2 -77z"/>
<path d="M3996 3284 c-23 -22 -21 -96 2 -117 31 -28 72 -15 72 22 0 11 -5 9
-16 -7 -18 -26 -27 -27 -48 -6 -29 28 -14 114 19 114 8 0 21 -10 29 -22 13
-18 16 -19 16 -6 0 17 -28 38 -49 38 -5 0 -17 -7 -25 -16z"/>
<path d="M4161 3226 c-1 -76 5 -95 14 -46 8 43 23 45 39 5 9 -21 19 -36 22
-32 3 3 -2 19 -10 36 -20 38 -20 60 1 83 9 10 11 18 6 18 -6 0 -20 -15 -31
-32 -22 -34 -26 -31 -35 22 -2 14 -5 -11 -6 -54z"/>
<path d="M4392 3223 l1 -78 6 60 6 60 33 -57 c18 -32 34 -58 37 -58 3 0 4 33
3 73 l-1 72 -6 -55 -6 -55 -33 58 c-19 31 -35 57 -38 57 -2 0 -3 -35 -2 -77z"/>
<path d="M4528 3289 c-14 -7 -18 -23 -18 -62 0 -58 12 -77 47 -77 22 0 51 36
39 48 -3 3 -6 0 -6 -6 0 -6 -9 -16 -19 -22 -40 -21 -68 50 -41 101 14 25 35
24 54 -3 9 -12 16 -17 16 -11 0 15 -28 43 -43 43 -7 0 -20 -5 -29 -11z"/>
<path d="M482 3223 c2 -64 2 -65 5 -15 2 28 7 52 11 52 4 0 21 -25 37 -55 15
-30 32 -55 37 -55 4 0 7 33 6 73 l-1 72 -6 -60 -6 -60 -33 58 c-19 31 -38 57
-43 57 -5 0 -8 -30 -7 -67z"/>
<path d="M601 3223 l1 -68 8 48 c5 27 11 51 13 53 2 3 17 -20 33 -51 16 -30
32 -55 37 -55 4 0 6 33 5 73 l-1 72 -6 -55 -6 -55 -32 53 c-18 28 -37 52 -43
52 -6 0 -10 -28 -9 -67z"/>
<path d="M890 3219 c0 -44 4 -68 10 -64 6 3 10 17 10 30 0 38 15 37 34 -2 9
-19 19 -33 22 -30 3 3 -3 22 -14 44 -20 38 -20 39 0 66 11 15 15 27 10 27 -6
0 -19 -15 -31 -32 l-21 -33 0 33 c0 17 -4 32 -10 32 -6 0 -10 -30 -10 -71z"/>
<path d="M1400 3226 c0 -36 5 -68 10 -71 6 -4 10 6 10 24 0 45 17 46 39 4 11
-21 20 -32 21 -25 0 7 -7 27 -16 44 -15 29 -15 34 1 62 l16 31 -30 -35 -31
-34 0 32 c0 18 -4 32 -10 32 -6 0 -10 -28 -10 -64z"/>
<path d="M3818 3228 c-2 -35 0 -67 4 -72 4 -6 8 22 8 62 0 40 -2 72 -4 72 -2
0 -6 -28 -8 -62z"/>
<path d="M4270 3275 c0 -8 3 -15 8 -15 4 0 20 -22 35 -50 41 -73 47 -71 45 12
l-1 73 -6 -60 -6 -60 -30 58 c-29 56 -45 71 -45 42z"/>
<path d="M3006 3500 c-74 -23 -101 -80 -100 -220 1 -87 4 -112 22 -147 37 -71
114 -98 203 -72 53 16 80 49 87 104 l5 46 -44 -3 c-35 -2 -45 -7 -47 -23 -11
-57 -72 -73 -113 -29 -22 23 -24 33 -23 122 0 106 11 138 49 148 47 12 73 -3
85 -46 10 -38 13 -40 50 -40 l40 0 0 44 c0 94 -102 149 -214 116z"/>
<path d="M1790 3280 l0 -220 40 0 40 0 0 60 c0 57 19 110 40 110 4 0 24 -38
45 -85 l38 -85 49 0 c26 0 48 2 48 4 0 2 -27 61 -60 132 l-61 128 61 88 61 88
-54 0 -54 0 -49 -80 c-27 -44 -52 -80 -56 -80 -5 0 -8 36 -8 80 l0 80 -40 0
-40 0 0 -220z"/>
<path d="M2140 3280 l0 -220 40 0 40 0 0 132 c0 76 4 128 9 123 5 -6 37 -65
72 -132 l64 -123 48 0 47 0 0 220 0 220 -46 0 -47 0 5 -130 c3 -71 3 -128 -1
-126 -3 2 -35 61 -71 130 l-64 126 -48 0 -48 0 0 -220z"/>
<path d="M2520 3280 l0 -220 45 0 44 0 3 132 3 131 69 -131 69 -132 48 0 49 0
0 220 0 220 -45 0 -45 0 0 -132 0 -133 -46 90 c-92 180 -88 175 -144 175 l-50
0 0 -220z"/>
<path d="M2454 1874 c-93 -46 -58 -184 46 -184 105 0 139 140 45 185 -41 19
-52 19 -91 -1z"/>
</g>
</svg>
