<?xml version="1.0" standalone="no"?>
<!DOCTYPE svg PUBLIC "-//W3C//DTD SVG 20010904//EN"
 "http://www.w3.org/TR/2001/REC-SVG-20010904/DTD/svg10.dtd">
<svg version="1.0" xmlns="http://www.w3.org/2000/svg"
 width="500.000000pt" height="500.000000pt" viewBox="0 0 500.000000 500.000000"
 preserveAspectRatio="xMidYMid meet">

<g transform="translate(0.000000,500.000000) scale(0.100000,-0.100000)"
fill="#000000" stroke="none">
<path d="M500 4533 c-14 -2 -55 -16 -93 -29 -86 -33 -162 -106 -209 -201 l-33
-68 -3 -1257 c-2 -1248 -2 -1258 18 -1319 34 -100 107 -186 199 -233 88 -46
86 -46 858 -46 l732 0 -5 -32 c-38 -215 -186 -458 -388 -635 l-48 -43 -135 0
c-79 0 -143 -5 -156 -11 -37 -19 -57 -52 -57 -95 0 -49 35 -90 84 -99 17 -3
585 -4 1263 -3 l1232 3 30 29 c52 50 39 132 -26 165 -13 6 -77 11 -157 11
l-136 0 -42 37 c-193 168 -328 379 -384 603 -7 30 -13 58 -14 63 0 4 330 7
733 7 772 0 770 0 858 46 93 47 164 131 198 234 l22 65 -3 1256 -3 1255 -34
68 c-52 102 -118 162 -231 211 -44 20 -85 20 -2045 21 -1100 1 -2011 -1 -2025
-3z m4031 -226 c26 -14 57 -42 74 -68 l30 -44 0 -1000 0 -1000 -379 -3 -380
-2 -145 144 c-159 157 -180 170 -239 142 l-36 -17 -112 113 -113 113 54 80
c74 109 121 227 145 359 24 131 25 200 5 324 -51 315 -239 568 -532 716 -254
128 -618 119 -873 -21 -282 -154 -477 -452 -497 -760 -3 -51 -10 -90 -14 -87
-5 3 -8 -30 -7 -73 l1 -78 7 65 c5 53 7 57 8 22 9 -225 144 -499 320 -650 183
-157 363 -229 597 -239 222 -9 403 40 577 158 32 22 61 39 66 39 4 0 56 -49
117 -110 104 -104 108 -110 97 -135 -7 -14 -12 -44 -12 -66 l0 -39 -1462 2
-1463 3 0 995 c0 1089 -3 1031 57 1087 59 56 -76 52 2079 53 l1986 0 44 -23z
m-1945 -257 c115 -15 248 -66 335 -130 264 -191 378 -499 302 -818 -7 -30 -13
-22 -47 60 l-28 67 27 23 c52 45 54 166 3 215 -28 27 -34 28 -144 31 l-114 4
0 -221 0 -221 45 0 45 0 0 81 0 80 26 -3 c23 -3 30 -13 54 -78 l27 -75 46 -3
46 -3 -19 -49 c-62 -156 -198 -305 -352 -384 -108 -55 -189 -76 -308 -83 -483
-26 -860 388 -791 868 42 287 247 526 521 610 123 37 207 45 326 29z m524
-645 c16 -19 15 -71 -1 -91 -7 -8 -29 -14 -55 -14 l-44 0 0 60 0 60 44 0 c27
0 48 -6 56 -15z m590 -1620 l205 -205 -1675 0 c-953 0 -1692 4 -1714 9 -52 13
-106 58 -133 111 -20 39 -23 59 -23 167 l0 123 1568 0 1567 0 205 -205z m938
72 c-3 -126 -5 -136 -31 -175 -15 -23 -46 -54 -69 -69 -41 -28 -44 -28 -230
-31 -103 -2 -188 0 -188 5 0 5 36 44 80 88 44 44 80 86 80 95 0 8 -46 61 -102
117 l-103 103 284 0 283 0 -4 -133z m-1813 -504 c38 -189 91 -326 182 -471 50
-79 132 -186 158 -204 5 -4 -293 -8 -663 -8 l-672 0 32 35 c156 172 261 389
313 648 l5 27 320 0 320 0 5 -27z"/>
<path d="M492 3223 l1 -78 6 58 6 59 30 -56 c17 -31 33 -56 38 -56 4 0 6 33 5
73 l-1 72 -6 -60 -6 -60 -33 63 c-18 34 -35 62 -38 62 -2 0 -3 -35 -2 -77z"/>
<path d="M691 3240 l-2 -65 -31 58 c-17 31 -35 57 -39 57 -5 0 -8 -33 -7 -72
l1 -73 6 60 6 60 35 -60 35 -60 3 37 c2 21 1 57 -1 80 -3 33 -4 28 -6 -22z"/>
<path d="M732 3223 c0 -43 3 -63 5 -45 6 44 37 44 52 0 6 -17 14 -29 17 -25 3
3 0 15 -6 27 -9 17 -9 28 0 45 14 27 10 57 -8 63 -11 3 -11 1 0 -17 11 -17 10
-23 -4 -37 -9 -9 -24 -14 -32 -11 -21 8 -20 54 2 66 15 9 15 10 -5 11 -22 0
-23 -3 -21 -77z"/>
<path d="M1122 3223 l1 -78 6 59 6 60 37 -60 37 -59 -1 75 c-1 73 -1 73 -7 21
l-6 -55 -28 52 c-15 28 -32 54 -37 57 -6 4 -9 -24 -8 -72z"/>
<path d="M1247 3293 c-11 -10 -8 -143 3 -143 6 0 10 14 10 30 0 40 22 39 43
-2 8 -18 16 -26 16 -18 0 8 -3 21 -8 29 -5 8 -3 23 5 39 14 28 3 63 -19 61 -9
0 -9 -2 1 -6 30 -12 7 -63 -29 -63 -14 0 -11 68 4 73 8 4 6 6 -4 6 -9 1 -19
-2 -22 -6z"/>
<path d="M3472 3223 c0 -43 3 -63 5 -45 6 43 36 44 54 0 7 -17 15 -26 17 -20
2 6 -2 21 -9 33 -9 17 -9 24 0 27 6 2 11 19 11 38 0 26 -4 34 -17 33 -11 0
-13 -3 -5 -6 20 -8 14 -51 -8 -58 -11 -3 -24 -3 -30 0 -16 10 -11 53 8 64 15
9 15 10 -5 11 -22 0 -23 -3 -21 -77z"/>
<path d="M3987 3294 c-11 -11 -9 -144 3 -144 6 0 10 14 10 30 0 41 27 39 45
-2 l13 -33 0 40 c-1 22 2 49 6 60 3 11 3 26 -2 32 -10 15 -64 27 -75 17z m57
-20 c9 -8 16 -17 16 -19 0 -10 -33 -35 -46 -35 -9 0 -14 11 -14 35 0 39 17 46
44 19z"/>
<path d="M4272 3223 l1 -78 6 60 6 60 23 -38 c12 -21 22 -42 22 -46 0 -5 7
-14 15 -21 13 -11 15 -3 13 61 -1 74 -1 74 -7 19 l-6 -55 -33 58 c-19 31 -35
57 -38 57 -2 0 -3 -35 -2 -77z"/>
<path d="M4517 3293 c-11 -11 -8 -145 3 -138 6 3 10 17 10 31 0 35 27 30 44
-8 8 -18 15 -27 15 -20 1 7 -4 23 -10 34 -8 15 -8 22 1 28 15 9 9 63 -8 66 -7
1 -8 0 -2 -3 5 -2 10 -15 10 -28 0 -21 -17 -35 -41 -35 -14 0 -11 68 4 73 8 4
6 6 -4 6 -9 1 -19 -2 -22 -6z"/>
<path d="M383 3220 c0 -41 2 -63 4 -48 2 14 10 32 18 38 11 9 17 4 30 -26 8
-20 18 -35 21 -32 3 4 -4 24 -15 46 l-20 40 20 26 c11 14 16 26 10 26 -5 0
-18 -13 -28 -30 -22 -38 -31 -38 -36 3 -2 17 -4 -2 -4 -43z"/>
<path d="M890 3226 c0 -36 5 -68 10 -71 6 -4 10 6 10 24 0 44 17 47 37 7 9
-20 20 -36 25 -36 5 0 -1 19 -13 42 -20 39 -20 43 -5 70 10 15 13 28 9 28 -5
0 -18 -15 -28 -32 l-20 -33 -3 33 c-6 58 -22 34 -22 -32z"/>
<path d="M1002 3218 l1 -73 6 60 6 60 33 -57 c19 -32 36 -58 38 -58 2 0 3 33
2 73 l-1 72 -6 -55 -6 -55 -21 35 c-11 19 -23 43 -27 53 -15 40 -27 14 -25
-55z"/>
<path d="M1400 3226 c0 -36 5 -68 10 -71 6 -4 10 6 10 24 0 45 17 46 39 4 11
-21 20 -32 21 -25 0 7 -7 27 -16 44 -15 29 -15 34 1 62 l16 31 -30 -35 -31
-34 0 32 c0 18 -4 32 -10 32 -6 0 -10 -28 -10 -64z"/>
<path d="M3643 3220 c-1 -57 1 -67 7 -42 11 48 17 49 36 8 10 -20 21 -36 26
-36 5 0 -1 19 -13 42 -20 40 -20 43 -4 72 16 31 16 31 -13 -4 l-30 -35 -5 35
c-2 19 -4 1 -4 -40z"/>
<path d="M3742 3218 l1 -73 6 60 6 60 34 -57 c19 -31 39 -55 43 -52 12 7 10
134 -2 134 -5 0 -10 -24 -10 -52 l0 -53 -31 53 c-17 28 -35 52 -40 52 -5 0 -8
-33 -7 -72z"/>
<path d="M3862 3218 l1 -73 6 60 c7 67 2 69 59 -25 12 -19 22 -33 23 -30 0 3
2 15 5 27 2 15 0 21 -9 18 -7 -3 -24 16 -40 45 -16 27 -32 50 -38 50 -5 0 -8
-33 -7 -72z"/>
<path d="M4160 3220 c0 -40 4 -70 10 -70 6 0 10 13 10 29 0 44 18 47 37 7 9
-20 20 -36 25 -36 4 0 -2 20 -14 44 -20 42 -20 46 -4 70 9 14 13 26 8 26 -4 0
-17 -15 -27 -32 l-20 -33 -3 33 c-6 60 -22 32 -22 -38z"/>
<path d="M4392 3218 l2 -73 3 65 4 64 35 -62 c19 -34 37 -62 40 -62 2 0 3 33
2 73 -2 70 -2 70 -5 14 l-4 -58 -28 53 c-41 76 -51 73 -49 -14z"/>
<path d="M1790 3280 l0 -220 45 0 45 0 0 63 c0 59 18 107 39 107 4 0 25 -38
46 -85 l38 -85 49 0 c27 0 47 3 45 8 -2 4 -11 23 -20 42 -8 19 -34 75 -57 125
-26 56 -39 95 -33 102 4 7 32 46 60 88 l52 75 -53 0 -54 0 -53 -82 -54 -83 -3
83 -3 82 -44 0 -45 0 0 -220z"/>
<path d="M2150 3281 l0 -221 40 0 39 0 3 132 3 131 69 -131 69 -132 48 0 49 0
0 220 0 220 -45 0 -44 0 -3 -127 -3 -128 -65 125 -65 125 -48 3 -47 3 0 -220z"/>
<path d="M2530 3281 l0 -221 45 0 45 0 0 132 0 133 27 -50 c14 -28 45 -86 68
-130 l42 -80 52 -3 51 -3 -2 218 -3 218 -42 3 -42 3 -3 -131 -3 -132 -67 129
-67 128 -50 3 -51 3 0 -220z"/>
<path d="M2454 1874 c-93 -46 -58 -184 46 -184 105 0 139 140 45 185 -41 19
-52 19 -91 -1z"/>
</g>
</svg>
